<?xml version="1.0" standalone="no"?>
<!DOCTYPE svg PUBLIC "-//W3C//DTD SVG 20010904//EN"
 "http://www.w3.org/TR/2001/REC-SVG-20010904/DTD/svg10.dtd">
<svg version="1.0" xmlns="http://www.w3.org/2000/svg"
 width="1920.000000pt" height="1920.000000pt" viewBox="0 0 1920.000000 1920.000000"
 preserveAspectRatio="xMidYMid meet">

<g transform="translate(0.000000,1920.000000) scale(0.100000,-0.100000)"
fill="#000000" stroke="none">
<path d="M7775 14059 c-169 -25 -290 -83 -400 -193 -95 -95 -129 -146 -295
-441 -68 -121 -277 -483 -465 -805 -188 -322 -383 -666 -433 -766 -190 -377
-246 -431 -515 -499 -142 -35 -292 -54 -657 -80 -432 -32 -633 -57 -1895 -235
-713 -101 -963 -134 -1204 -160 -425 -46 -635 -115 -776 -255 -82 -81 -121
-159 -149 -296 -5 -25 -9 -26 -98 -33 -290 -20 -441 -129 -504 -361 -21 -79
-30 -470 -16 -685 13 -193 33 -294 77 -387 75 -161 204 -246 394 -262 70 -5
76 -8 79 -29 l4 -23 -109 8 c-183 13 -400 9 -472 -10 -160 -43 -246 -131 -312
-320 l-29 -82 0 -275 0 -275 29 -82 c62 -177 154 -271 316 -319 65 -19 162
-22 510 -14 l190 5 95 -45 c83 -39 103 -45 161 -45 59 0 72 4 118 35 77 52
122 122 244 375 484 1004 651 1275 855 1383 187 100 454 135 837 111 110 -7
355 -13 545 -14 389 -2 430 -8 554 -73 86 -44 208 -163 283 -272 107 -159 484
-838 792 -1429 67 -129 136 -255 153 -280 118 -174 245 -267 418 -305 68 -15
302 -17 2635 -22 1408 -3 2745 -6 2970 -7 540 -1 648 12 793 100 142 86 248
223 412 533 194 365 349 634 563 980 332 536 432 650 630 725 106 40 199 48
577 50 195 1 465 5 600 10 267 8 391 0 534 -36 109 -27 230 -88 300 -151 125
-111 273 -335 410 -620 90 -185 358 -812 411 -958 76 -211 148 -319 243 -363
44 -21 62 -22 312 -22 246 0 271 2 345 23 210 61 349 195 419 405 44 131 64
393 48 615 -12 168 -34 216 -160 355 -148 161 -161 201 -147 450 l7 135 286
-1 c304 -2 345 2 492 49 164 52 302 178 366 334 55 135 55 139 51 1376 -3
1136 -3 1139 -25 1221 -67 254 -233 422 -489 495 -103 30 -313 32 -413 4 -253
-70 -435 -237 -485 -447 -8 -35 -15 -81 -15 -101 0 -34 -3 -38 -25 -38 -23 0
-25 4 -25 45 0 125 -48 432 -110 698 -63 271 -248 972 -286 1087 -49 146 -94
222 -183 310 -91 90 -178 139 -319 178 l-97 27 -4445 1 c-2490 1 -4471 -2
-4505 -7z m1529 -435 l1089 -5 -7 -1572 c-3 -865 -9 -2183 -12 -2929 l-7
-1358 -1941 0 c-1300 0 -1953 4 -1978 10 -44 13 -90 64 -107 119 -8 28 -11
460 -12 1582 0 1700 -3 1620 62 1805 39 114 140 320 222 456 36 58 150 236
254 395 236 359 237 361 426 743 157 319 230 444 326 558 133 160 270 216 501
206 52 -2 585 -7 1184 -10z m7341 -10 c152 -40 235 -133 306 -342 37 -110 62
-227 103 -489 38 -239 67 -368 216 -960 177 -710 237 -1020 259 -1343 6 -86 8
-544 5 -1120 -4 -928 -5 -976 -22 -1000 -33 -45 -81 -55 -257 -55 -137 0 -170
3 -230 22 -38 12 -80 29 -92 38 -36 26 -113 152 -219 362 -121 238 -169 316
-255 407 -161 173 -357 260 -643 287 -123 11 -1549 6 -1684 -7 l-62 -6 11 29
c5 15 53 114 104 218 104 208 129 286 145 444 19 190 12 332 -35 776 -13 127
-31 322 -40 435 -8 113 -33 432 -55 710 -55 706 -90 1302 -90 1546 l0 54 1003
1 c551 1 1047 5 1102 9 142 11 358 4 430 -16z m-2912 -291 c7 -328 18 -509 77
-1303 38 -522 53 -735 65 -970 3 -63 17 -223 30 -355 34 -341 38 -435 26 -565
-19 -201 -53 -290 -189 -496 -85 -129 -137 -214 -471 -761 -277 -456 -440
-734 -521 -891 -35 -68 -80 -141 -101 -162 -50 -51 -121 -72 -243 -72 -50 0
-436 3 -858 7 l-768 7 0 2929 0 2929 1473 0 1474 0 6 -297z m4807 -1470 c109
-30 170 -78 196 -155 15 -47 17 -144 17 -1144 l0 -1092 -26 -55 c-29 -58 -73
-95 -142 -118 -54 -19 -373 -18 -384 0 -10 16 -18 413 -30 1475 -11 901 -10
931 38 1025 43 84 171 109 331 64z m-12620 -2498 l0 -1595 -40 0 c-120 0 -209
97 -329 358 -56 123 -250 493 -334 637 -203 351 -414 549 -677 635 -167 54
-477 77 -835 60 -132 -6 -433 -15 -670 -20 -446 -9 -484 -12 -615 -58 -241
-84 -446 -283 -600 -583 -80 -155 -124 -212 -178 -230 -31 -11 -258 -16 -268
-6 -1 1 -3 346 -4 767 -2 675 0 771 14 816 32 103 98 171 194 199 53 16 341
60 692 105 129 17 420 58 645 91 906 132 1951 279 2670 373 182 24 331 44 333
45 1 1 2 -717 2 -1594z m-4980 75 c0 -209 -3 -380 -6 -380 -32 0 -85 75 -109
155 -8 25 -19 89 -25 143 -19 173 13 347 78 423 63 74 62 81 62 -341z m529
-1336 c2 -2 -19 -50 -47 -106 -143 -294 -267 -357 -700 -358 -177 0 -203 9
-235 77 -19 42 -22 65 -22 178 0 107 3 136 18 163 32 59 33 59 530 54 249 -2
454 -6 456 -8z m16313 -226 c62 -28 73 -56 71 -183 -3 -151 -26 -225 -93 -298
-60 -66 -112 -89 -198 -89 -92 1 -159 35 -206 107 -45 67 -66 115 -126 290
-27 77 -51 147 -55 156 -5 14 9 18 112 27 180 15 449 10 495 -10z m-5370 -533
l28 -7 -23 -40 c-32 -58 -118 -132 -192 -168 -169 -81 -359 -99 -801 -76 -261
13 -603 16 -2155 16 -1349 0 -1895 -3 -2034 -12 -261 -17 -762 -17 -840 0
-114 25 -217 64 -277 106 -59 40 -129 125 -143 174 l-7 23 3209 -4 c1764 -2
3220 -7 3235 -12z"/>
<path d="M8040 13293 c-32 -6 -75 -20 -96 -31 -63 -32 -145 -128 -209 -242
-76 -137 -377 -658 -624 -1080 -290 -496 -320 -563 -308 -691 11 -126 109
-228 257 -270 35 -9 314 -13 1210 -16 641 -2 1235 -4 1320 -5 118 -1 170 3
219 15 174 47 276 160 304 340 21 132 11 1618 -12 1710 -35 145 -134 240 -276
266 -88 16 -1710 20 -1785 4z m590 -353 c80 -6 195 -14 255 -19 78 -6 178 -4
342 7 247 17 357 11 423 -23 62 -32 60 -7 60 -749 1 -592 -1 -679 -15 -706
-38 -73 -151 -89 -465 -67 -215 16 -662 15 -1835 -4 -116 -2 -112 -8 -68 115
64 177 127 290 367 656 91 140 196 316 245 410 150 294 195 341 346 369 53 10
86 13 175 19 14 1 90 -3 170 -8z"/>
<path d="M9500 10243 c-160 -15 -237 -37 -282 -80 -91 -87 -69 -267 40 -321
78 -40 137 -47 387 -47 257 0 333 11 395 55 94 67 106 231 23 313 -40 41 -105
62 -238 77 -84 9 -245 11 -325 3z"/>
<path d="M8085 10119 c-104 -3 -305 -12 -445 -19 -204 -10 -301 -10 -482 0
-395 22 -532 1 -601 -92 -42 -56 -32 -167 20 -229 65 -76 170 -95 448 -78 130
7 396 9 845 4 360 -4 705 -7 765 -8 171 -1 254 34 302 127 21 41 20 123 -2
170 -39 82 -143 112 -415 122 -80 2 -167 6 -195 7 -27 2 -135 0 -240 -4z"/>
<path d="M14747 13298 c-158 -20 -275 -137 -307 -308 -23 -122 -11 -410 41
-930 16 -168 34 -402 39 -520 10 -222 24 -309 61 -381 33 -66 94 -124 162
-155 l62 -29 940 -6 c528 -4 962 -3 990 2 70 13 167 63 206 106 145 166 131
408 -75 1273 -41 173 -84 368 -96 434 -54 300 -117 420 -252 482 -61 27 -70
28 -238 31 -427 7 -1480 8 -1533 1z m1429 -369 c148 -25 186 -82 233 -352 12
-64 37 -184 57 -265 110 -459 149 -657 160 -818 l7 -92 -684 -6 c-376 -3 -723
-9 -771 -12 -159 -10 -239 23 -252 104 -4 20 -11 98 -16 172 -5 74 -14 185
-20 245 -6 61 -17 256 -25 435 -9 179 -19 353 -24 388 -27 191 60 229 459 199
128 -9 222 -11 305 -5 363 26 448 27 571 7z"/>
<path d="M14739 10110 c-83 -8 -172 -27 -204 -43 -88 -43 -126 -166 -79 -258
21 -41 70 -77 132 -96 50 -16 88 -17 292 -14 418 8 1739 6 1965 -3 190 -8 229
-7 282 7 126 33 189 104 181 202 -6 74 -42 126 -110 158 -109 53 -482 65
-1233 42 -451 -14 -599 -15 -760 -6 -323 18 -386 20 -466 11z"/>
<path d="M11328 13293 c-146 -30 -254 -150 -290 -323 -17 -84 -14 -1612 3
-1700 30 -149 143 -260 294 -289 77 -15 1918 -21 1980 -6 148 34 245 139 275
296 19 100 -11 604 -69 1179 -16 157 -32 336 -36 397 -3 62 -13 138 -20 168
-41 154 -137 248 -280 274 -91 16 -1779 20 -1857 4z m1673 -388 c13 -4 34 -17
47 -28 43 -40 53 -103 62 -397 14 -438 35 -748 65 -954 8 -55 13 -101 10 -104
-12 -12 -458 -21 -1071 -21 l-671 -1 -5 708 c-5 639 -4 710 11 742 31 68 -3
65 802 64 399 -1 737 -5 750 -9z"/>
<path d="M13025 10209 c-132 -20 -196 -60 -231 -145 -18 -43 -18 -118 1 -153
47 -92 153 -121 446 -122 334 0 443 36 474 159 22 85 -8 174 -73 214 -66 41
-127 50 -347 53 -115 2 -237 -1 -270 -6z"/>
<path d="M11907 10103 c-4 -3 -179 -7 -389 -7 -367 -2 -385 -2 -429 -23 -25
-11 -59 -38 -75 -59 -26 -33 -29 -45 -29 -109 0 -63 4 -77 29 -113 33 -49 85
-76 187 -99 93 -21 408 -23 619 -4 80 8 249 14 375 15 212 1 234 3 276 22 150
70 154 293 6 348 -23 9 -80 20 -127 26 -94 11 -433 14 -443 3z"/>
<path d="M1970 10114 c-164 -25 -237 -55 -272 -112 -49 -80 -16 -211 66 -262
90 -55 310 -69 700 -46 225 13 505 16 1700 16 1013 0 1443 3 1471 11 74 21
135 107 135 189 -1 39 -34 103 -69 133 -56 47 -127 61 -301 60 -1771 -14
-2668 -13 -2890 1 -217 15 -477 19 -540 10z"/>
<path d="M3210 8640 c-358 -64 -659 -221 -914 -477 -244 -244 -410 -558 -475
-897 -111 -573 45 -1153 426 -1579 227 -254 569 -450 913 -524 121 -26 511
-25 655 1 363 66 731 272 970 545 224 256 372 589 415 934 20 157 8 463 -24
612 -181 856 -861 1409 -1726 1404 -84 0 -175 -8 -240 -19z m520 -486 c370
-65 696 -306 868 -642 95 -185 131 -331 139 -557 9 -257 -29 -441 -136 -660
-178 -364 -482 -592 -875 -657 -100 -17 -352 -14 -466 5 -438 74 -797 381
-940 807 -87 258 -85 580 5 856 163 497 557 821 1055 868 73 6 258 -4 350 -20z"/>
<path d="M3343 7726 c-327 -63 -546 -260 -635 -571 -32 -113 -32 -320 0 -450
75 -302 292 -534 572 -612 97 -27 346 -24 454 5 269 74 460 260 536 522 33
113 38 314 12 442 -38 184 -116 330 -242 458 -93 94 -186 150 -315 190 -90 28
-278 36 -382 16z m330 -454 c81 -40 138 -102 184 -198 31 -65 37 -88 41 -168
10 -199 -76 -333 -251 -387 -151 -47 -322 -7 -425 99 -201 207 -146 543 108
654 70 31 109 37 197 34 68 -2 92 -8 146 -34z"/>
<path d="M14739 8645 c-130 -21 -263 -54 -373 -92 -462 -160 -845 -547 -1010
-1020 -135 -389 -137 -809 -5 -1208 193 -584 656 -1014 1239 -1152 144 -34
444 -43 630 -19 320 42 588 159 853 371 366 294 596 738 626 1211 57 911 -533
1707 -1406 1895 -129 27 -427 35 -554 14z m434 -486 c454 -59 839 -379 987
-819 40 -119 60 -233 66 -375 11 -242 -31 -446 -136 -660 -185 -382 -516 -620
-938 -676 -110 -15 -351 -6 -452 16 -475 104 -824 437 -944 899 -114 436 13
938 317 1261 95 101 184 172 287 228 223 123 505 166 813 126z"/>
<path d="M14847 7725 c-338 -64 -564 -267 -648 -581 -30 -113 -31 -305 -1
-427 63 -257 217 -460 425 -562 121 -59 188 -76 332 -82 411 -18 717 197 816
572 26 96 31 305 11 400 -74 345 -286 592 -577 670 -85 23 -262 28 -358 10z
m318 -454 c191 -94 281 -365 186 -566 -67 -144 -201 -215 -383 -202 -174 12
-306 118 -359 288 -37 117 -17 255 50 352 103 150 339 210 506 128z"/>
</g>
</svg>
