<svg xmlns="http://www.w3.org/2000/svg" id="car" width="64" height="64" viewBox="36.071 28.092 30 44.531">
  <path fill-rule="evenodd" d="M51.103 980.454c-8.27 0-15.032 6.7-15.032 14.968 1.298 9.832 8.085 15.907 13.907 23.5.54.688 1.74.688 2.28 0 .602-.807 1.377-1.752 2.22-2.78 2.03.2 3.867.514 5.25 1 1.06.371 1.89.78 2.343 1.155.454.377.438.59.438.657 0 .066.007.311-.438.687-.453.377-1.283.785-2.343 1.157-2.12.744-5.196 1.28-8.625 1.28-3.431 0-6.567-.536-8.688-1.28-1.06-.372-1.89-.78-2.344-1.157-.454-.376-.5-.62-.5-.687 0-.067.048-.28.5-.656.454-.376 1.284-.785 2.344-1.157.576-.201 1.234-.467 1.938-.625l-1.938-2.406c-.313.094-.643.177-.937.281-1.277.449-2.396.98-3.25 1.688-.854.709-1.563 1.69-1.563 2.875s.709 2.135 1.563 2.844c.854.708 1.973 1.3 3.25 1.75 2.557.897 5.919 1.437 9.625 1.437 4.674-.137 9.138-.724 12.78-3.187 2.066-2.049 1.519-3.787 0-5.72-.853-.707-1.877-1.238-3.155-1.687a23.193 23.193 0 0 0-4-1c1.277-1.575 2.59-3.235 3.843-5 2.945-4.143 5.5-8.61 5.5-12.969 0-8.269-6.701-14.968-14.968-14.968zm-6 6.812H57.04s.483-.013.625.438l1 3.218v-1.03h1.656v1.218h-1.593a.652.652 0 0 0 .593.375h.094s.469 0 .469.469v2.187s.035.469-.25.469c0 0-.281 0-.281.469v.125s-.013.076-.063.187h.125c.469 0 .469.5.469.5v5.531c0 .474-.469.47-.469.47h-1.812c-.476 0-.47-.47-.47-.47v-1.875H54.04c.01.051.031.094.031.094 0 .474-.468.47-.468.47h-4.938c-.476 0-.469-.47-.469-.47v-.094H45.04v1.875c0 .474-.469.47-.469.47H42.79c-.473 0-.5-.47-.5-.47v-5.53c0-.473.5-.5.5-.5h.125c-.03-.059 0-.101 0-.188v-.062s-.02-.47-.437-.47c0 0-.407 0-.407-.468v-1.844s-.004-.468.469-.468h.125s.446-.02.594-.47l.125-.312H41.82v-1.218h1.657v.968l1.03-3.156s.148-.417.595-.437zm.687 1.375-.625 2.438h11.563l-.657-2.438h-10.28zm.375 3.688a.867.867 0 0 0-.875.875c0 .49.386.875.875.875.49 0 .906-.386.906-.875 0-.49-.416-.875-.906-.875zm9.75 0a.867.867 0 0 0-.875.875c0 .49.386.875.875.875.49 0 .875-.386.875-.875a.867.867 0 0 0-.875-.875zm-12.75.406v.937h1.281v-.937h-1.28zm14.531 0v.937h1.282v-.937h-1.282z" color="#000" font-family="Sans" font-weight="400" overflow="visible" style="text-indent:0;text-align:start;line-height:normal;text-transform:none;block-progression:tb;marker:none;-inkscape-font-specification:Sans" transform="translate(0 -952.362)"></path>
</svg>
