<?xml version="1.0" encoding="UTF-8"?>
<svg version="1.1" xmlns="http://www.w3.org/2000/svg" width="64" height="64">
<path d="M0 0 C4.8404001 2.60960701 8.06650639 6.09014417 9.796875 11.28125 C10.51122616 18.16963615 10.53038265 23.76805114 6.35546875 29.48046875 C4.18912333 31.98343928 1.90905146 34.32354374 -0.48828125 36.60546875 C-2.94254364 39.00382539 -5.05288714 41.60974235 -7.203125 44.28125 C-9.40477007 43.29430566 -10.9577315 42.58043847 -12.50390625 40.6953125 C-14.15909386 39.03285228 -14.15909386 39.03285228 -16.7265625 39.13671875 C-17.66757812 39.24628906 -18.60859375 39.35585938 -19.578125 39.46875 C-20.98191406 39.61376953 -20.98191406 39.61376953 -22.4140625 39.76171875 C-25.22025104 40.28444014 -27.59807136 41.13028994 -30.203125 42.28125 C-30.203125 42.94125 -30.203125 43.60125 -30.203125 44.28125 C-15.84584249 49.43431528 -0.5873929 49.4859393 13.796875 44.28125 C13.796875 43.62125 13.796875 42.96125 13.796875 42.28125 C10.496875 41.29125 7.196875 40.30125 3.796875 39.28125 C3.796875 35.28125 3.796875 35.28125 4.796875 34.28125 C10.97009178 34.59514238 15.24214938 35.72652438 19.796875 40.28125 C20.171875 43.09375 20.171875 43.09375 19.796875 46.28125 C15.41084752 51.39828206 8.19529093 52.96353813 1.70751953 53.57006836 C-1.60115089 53.68259624 -4.89282895 53.69081226 -8.203125 53.65625 C-9.31429688 53.66785156 -10.42546875 53.67945313 -11.5703125 53.69140625 C-19.82476189 53.6622729 -27.11376004 52.65308168 -34.328125 48.46875 C-36.203125 46.28125 -36.203125 46.28125 -36.828125 43.28125 C-36.203125 40.28125 -36.203125 40.28125 -34.328125 38.09375 C-30.15238713 35.67182204 -25.85902251 34.47460626 -21.203125 33.28125 C-21.203125 30.67241808 -22.13781874 29.96723657 -23.703125 27.90625 C-27.10571766 22.58424609 -27.11435935 17.41520715 -26.203125 11.28125 C-24.55559203 6.38246846 -21.47503027 3.12918685 -17.203125 0.28125 C-11.84906913 -1.50343529 -5.40672306 -1.76389547 0 0 Z M-13.203125 14.28125 C-13.53645833 17.28125 -13.53645833 17.28125 -13.203125 20.28125 C-11.31812229 22.59688087 -11.31812229 22.59688087 -8.203125 22.53125 C-5.08812771 22.59688087 -5.08812771 22.59688087 -3.203125 20.28125 C-2.86979167 17.28125 -2.86979167 17.28125 -3.203125 14.28125 C-5.08812771 11.96561913 -5.08812771 11.96561913 -8.203125 12.03125 C-11.31812229 11.96561913 -11.31812229 11.96561913 -13.203125 14.28125 Z " fill="#784FF2" transform="translate(40.203125,5.71875)"/>
</svg>
