<!-- icon666.com - MILLIONS OF FREE VECTOR ICONS --><svg id="Layer_1" viewBox="0 0 100 100" xmlns="http://www.w3.org/2000/svg"><path d="m73.9266281 35.1739159s-1.3151321-1.2665329-3.5658951-1.8577919c-.4713287-.123806-.9621353-.0851593-1.2747574.2233543-.0201416-5.7789536-.1166077-10.9497585-.3496094-14.0174274-.7962341-10.4836007-3.8484344-13.5357719-3.8484344-13.5357719-15.3585358-3.4992917-29.7256012 0-29.7256012 0s-3.0522003 3.0521712-3.8484039 13.5357723c-.2336369 3.0761375-.3300743 8.2668839-.3498211 14.0651455-.3084526-.3555794-.8287106-.4013939-1.3248348-.2710724-2.2507687.591259-3.565897 1.8577919-3.565897 1.8577919-.4486465.4431725-.7310944.9272804-.4574165 1.4525261l.3651237.700882c.2736759.5252495.5149345.6331749 1.4525394.4574623l3.5271587-.8332443c.0160885 13.2521019.3531475 28.0878944.3531475 28.0878944s-.1327248 20.6852264 1.4597092 25.7362518c1.5924606 5.0510178 11.5943794 5.4491196 17.2514954 5.4491196s15.6590271-.3981018 17.2514954-5.4491196c1.5924301-5.0510254 1.4597397-25.7362518 1.4597397-25.7362518s.3368454-14.826931.3531113-28.0760269l3.4768982.8213768c.9376068.1757126 1.1788712.0677872 1.4525452-.4574623l.3651199-.700882c.2736816-.5252461-.0087662-1.0093541-.4574128-1.4525265zm-23.9014969-7.1313687s9.952774-.2928638 16.0571442 4.8825817l-3.8484001 9.5546722s-4.246521-1.3270416-12.208744-1.3270416-12.2087479 1.3270416-12.2087479 1.3270416l-3.8484001-9.5546722c6.1043701-5.1754455 16.0571479-4.8825817 16.0571479-4.8825817zm-17.3841934 8.1448345 4.1138268 9.211895.4201279 13.9242592-4.7675591-1.4488525c-.1522637-12.7292137.2336044-21.6873017.2336044-21.6873017zm.6635399 45.3073235c-.4606247-6.8707581-.7099876-13.5559616-.8322182-19.5901756h4.7805023l.4309273 14.2820168zm16.7206535 13.2703629c-12.7723999 0-14.6657257-3.0516891-14.6657257-3.0516891l2.9877892-8.2281265s4.51194 1.4597397 11.6779366 1.4597397 11.6779327-1.4597397 11.6779327-1.4597397l2.9877853 8.2281265c0-.0000001-2.3242493 3.0516891-14.6657181 3.0516891zm16.7206497-13.2703629-4.3791809-5.3081589.4309273-14.2820168h4.7804756c-.1222305 6.0342141-.3715973 12.7194176-.832222 19.5901757zm.8971482-23.6200218-4.7675629 1.4488525.4201622-13.9242592 4.1137886-9.211895s.3858719 8.958088.2336121 21.6873017z"></path></svg>