<svg xmlns="http://www.w3.org/2000/svg" viewBox="0 0 512 512" width="512" height="512">
  <defs>
    <linearGradient id="grad1" x1="0%" y1="0%" x2="100%" y2="100%">
      <stop offset="0%" style="stop-color:#667eea;stop-opacity:1" />
      <stop offset="100%" style="stop-color:#764ba2;stop-opacity:1" />
    </linearGradient>
  </defs>
  
  <!-- Фон -->
  <rect width="512" height="512" rx="100" fill="url(#grad1)"/>
  
  <!-- Машина -->
  <g transform="translate(100, 200)">
    <!-- Кузов -->
    <rect x="50" y="80" width="200" height="60" rx="10" fill="white" opacity="0.9"/>
    
    <!-- Колеса -->
    <circle cx="80" cy="140" r="25" fill="#333"/>
    <circle cx="220" cy="140" r="25" fill="#333"/>
    <circle cx="80" cy="140" r="15" fill="#666"/>
    <circle cx="220" cy="140" r="15" fill="#666"/>
    
    <!-- Окна -->
    <rect x="70" y="90" width="40" height="30" rx="5" fill="#87CEEB"/>
    <rect x="130" y="90" width="40" height="30" rx="5" fill="#87CEEB"/>
    
    <!-- Фары -->
    <circle cx="60" cy="100" r="8" fill="#FFD700"/>
    <circle cx="240" cy="100" r="8" fill="#FFD700"/>
  </g>
  
  <!-- GPS символ -->
  <g transform="translate(350, 100)">
    <circle cx="50" cy="50" r="40" fill="none" stroke="white" stroke-width="4" opacity="0.8"/>
    <circle cx="50" cy="50" r="25" fill="none" stroke="white" stroke-width="3" opacity="0.8"/>
    <circle cx="50" cy="50" r="10" fill="white" opacity="0.8"/>
    <line x1="50" y1="10" x2="50" y2="25" stroke="white" stroke-width="3" opacity="0.8"/>
    <line x1="50" y1="75" x2="50" y2="90" stroke="white" stroke-width="3" opacity="0.8"/>
    <line x1="10" y1="50" x2="25" y2="50" stroke="white" stroke-width="3" opacity="0.8"/>
    <line x1="75" y1="50" x2="90" y2="50" stroke="white" stroke-width="3" opacity="0.8"/>
  </g>
</svg> 